<?xml version="1.0" encoding="UTF-8" standalone="no"?>
<!DOCTYPE svg PUBLIC "-//W3C//DTD SVG 1.1//EN" "http://www.w3.org/Graphics/SVG/1.1/DTD/svg11.dtd">
<!-- Generated by graphviz version 2.40.1 (20161225.0304)
 -->
<!-- Title: %0 Pages: 1 -->
<svg width="272pt" height="188pt" viewBox="0.00 0.00 272.42 188.00" xmlns="http://www.w3.org/2000/svg" xmlns:xlink="http://www.w3.org/1999/xlink">
<g id="graph0" class="graph" transform="scale(1 1) rotate(0) translate(4 184)">
<title>%0</title>
<polygon fill="#ffffff" stroke="transparent" points="-4,4 -4,-184 268.4246,-184 268.4246,4 -4,4"/>
<!-- readData -->
<g id="node1" class="node">
<title>readData</title>
<ellipse fill="none" stroke="#000000" cx="126.6192" cy="-162" rx="45.7636" ry="18"/>
<text text-anchor="middle" x="126.6192" y="-157.8" font-family="Times,serif" font-size="14.00" fill="#000000">readData</text>
</g>
<!-- setup -->
<g id="node2" class="node">
<title>setup</title>
<ellipse fill="none" stroke="#000000" cx="126.6192" cy="-90" rx="31.339" ry="18"/>
<text text-anchor="middle" x="126.6192" y="-85.8" font-family="Times,serif" font-size="14.00" fill="#000000">setup</text>
</g>
<!-- readData&#45;&gt;setup -->
<g id="edge1" class="edge">
<title>readData-&gt;setup</title>
<path fill="none" stroke="#000000" d="M126.6192,-143.8314C126.6192,-136.131 126.6192,-126.9743 126.6192,-118.4166"/>
<polygon fill="#000000" stroke="#000000" points="130.1193,-118.4132 126.6192,-108.4133 123.1193,-118.4133 130.1193,-118.4132"/>
</g>
<!-- setupServer -->
<g id="node3" class="node">
<title>setupServer</title>
<ellipse fill="none" stroke="#000000" cx="56.6192" cy="-18" rx="56.7387" ry="18"/>
<text text-anchor="middle" x="56.6192" y="-13.8" font-family="Times,serif" font-size="14.00" fill="#000000">setupServer</text>
</g>
<!-- setup&#45;&gt;setupServer -->
<g id="edge2" class="edge">
<title>setup-&gt;setupServer</title>
<path fill="none" stroke="#000000" d="M111.0839,-74.0209C102.1384,-64.8197 90.7053,-53.06 80.6261,-42.6928"/>
<polygon fill="#000000" stroke="#000000" points="83.0613,-40.1766 73.581,-35.4464 78.0423,-45.0562 83.0613,-40.1766"/>
</g>
<!-- setupDatabase -->
<g id="node4" class="node">
<title>setupDatabase</title>
<ellipse fill="none" stroke="#000000" cx="197.6192" cy="-18" rx="66.6113" ry="18"/>
<text text-anchor="middle" x="197.6192" y="-13.8" font-family="Times,serif" font-size="14.00" fill="#000000">setupDatabase</text>
</g>
<!-- setup&#45;&gt;setupDatabase -->
<g id="edge3" class="edge">
<title>setup-&gt;setupDatabase</title>
<path fill="none" stroke="#000000" d="M142.3764,-74.0209C151.4498,-64.8197 163.0462,-53.06 173.2694,-42.6928"/>
<polygon fill="#000000" stroke="#000000" points="175.8858,-45.0243 180.4151,-35.4464 170.9015,-40.1093 175.8858,-45.0243"/>
</g>
</g>
</svg>