<?xml version="1.0" encoding="UTF-8" standalone="no"?>
<!DOCTYPE svg PUBLIC "-//W3C//DTD SVG 1.1//EN" "http://www.w3.org/Graphics/SVG/1.1/DTD/svg11.dtd">
<!-- Generated by graphviz version 2.40.1 (20161225.0304)
 -->
<!-- Title: %0 Pages: 1 -->
<svg width="272pt" height="260pt" viewBox="0.00 0.00 272.42 260.00" xmlns="http://www.w3.org/2000/svg" xmlns:xlink="http://www.w3.org/1999/xlink">
<g id="graph0" class="graph" transform="scale(1 1) rotate(0) translate(4 256)">
<title>%0</title>
<polygon fill="#ffffff" stroke="transparent" points="-4,4 -4,-256 268.4246,-256 268.4246,4 -4,4"/>
<!-- main -->
<g id="node1" class="node">
<title>main</title>
<ellipse fill="none" stroke="#000000" cx="85.6192" cy="-234" rx="30.1958" ry="18"/>
<text text-anchor="middle" x="85.6192" y="-229.8" font-family="Times,serif" font-size="14.00" fill="#000000">main</text>
</g>
<!-- readData -->
<g id="node2" class="node">
<title>readData</title>
<ellipse fill="none" stroke="#000000" cx="85.6192" cy="-162" rx="45.7636" ry="18"/>
<text text-anchor="middle" x="85.6192" y="-157.8" font-family="Times,serif" font-size="14.00" fill="#000000">readData</text>
</g>
<!-- main&#45;&gt;readData -->
<g id="edge1" class="edge">
<title>main-&gt;readData</title>
<path fill="none" stroke="#000000" d="M85.6192,-215.8314C85.6192,-208.131 85.6192,-198.9743 85.6192,-190.4166"/>
<polygon fill="#000000" stroke="#000000" points="89.1193,-190.4132 85.6192,-180.4133 82.1193,-190.4133 89.1193,-190.4132"/>
</g>
<!-- setup -->
<g id="node3" class="node">
<title>setup</title>
<ellipse fill="none" stroke="#000000" cx="115.6192" cy="-90" rx="31.339" ry="18"/>
<text text-anchor="middle" x="115.6192" y="-85.8" font-family="Times,serif" font-size="14.00" fill="#000000">setup</text>
</g>
<!-- readData&#45;&gt;setup -->
<g id="edge2" class="edge">
<title>readData-&gt;setup</title>
<path fill="none" stroke="#000000" d="M93.035,-144.2022C96.4499,-136.0064 100.5766,-126.1024 104.3632,-117.0145"/>
<polygon fill="#000000" stroke="#000000" points="107.6733,-118.17 108.2888,-107.593 101.2118,-115.4776 107.6733,-118.17"/>
</g>
<!-- setupServer -->
<g id="node4" class="node">
<title>setupServer</title>
<ellipse fill="none" stroke="#000000" cx="56.6192" cy="-18" rx="56.7387" ry="18"/>
<text text-anchor="middle" x="56.6192" y="-13.8" font-family="Times,serif" font-size="14.00" fill="#000000">setupServer</text>
</g>
<!-- setup&#45;&gt;setupServer -->
<g id="edge3" class="edge">
<title>setup-&gt;setupServer</title>
<path fill="none" stroke="#000000" d="M102.2312,-73.6621C94.8805,-64.6918 85.6046,-53.372 77.3401,-43.2865"/>
<polygon fill="#000000" stroke="#000000" points="80.0305,-41.0476 70.985,-35.5312 74.6161,-45.4844 80.0305,-41.0476"/>
</g>
<!-- setupDatabase -->
<g id="node5" class="node">
<title>setupDatabase</title>
<ellipse fill="none" stroke="#000000" cx="197.6192" cy="-18" rx="66.6113" ry="18"/>
<text text-anchor="middle" x="197.6192" y="-13.8" font-family="Times,serif" font-size="14.00" fill="#000000">setupDatabase</text>
</g>
<!-- setup&#45;&gt;setupDatabase -->
<g id="edge4" class="edge">
<title>setup-&gt;setupDatabase</title>
<path fill="none" stroke="#000000" d="M133.0093,-74.7307C143.8075,-65.2493 157.9201,-52.8578 170.2002,-42.0753"/>
<polygon fill="#000000" stroke="#000000" points="172.747,-44.4968 177.9521,-35.2687 168.1284,-39.2367 172.747,-44.4968"/>
</g>
<!-- setupServer&#45;&gt;readData -->
<g id="edge5" class="edge">
<title>setupServer-&gt;readData</title>
<path fill="none" stroke="#000000" d="M60.279,-36.1727C65.2527,-60.8697 74.1923,-105.2595 80.0142,-134.1684"/>
<polygon fill="#000000" stroke="#000000" points="76.5995,-134.9413 82.005,-144.0535 83.4618,-133.5593 76.5995,-134.9413"/>
</g>
</g>
</svg>